<?xml version="1.0" encoding="UTF-8" standalone="no"?>
<!-- Created with Inkscape (http://www.inkscape.org/) -->

<svg
   xmlns:dc="http://purl.org/dc/elements/1.1/"
   xmlns:cc="http://creativecommons.org/ns#"
   xmlns:rdf="http://www.w3.org/1999/02/22-rdf-syntax-ns#"
   xmlns:svg="http://www.w3.org/2000/svg"
   xmlns="http://www.w3.org/2000/svg"
   xmlns:sodipodi="http://sodipodi.sourceforge.net/DTD/sodipodi-0.dtd"
   xmlns:inkscape="http://www.inkscape.org/namespaces/inkscape"
   width="42.52"
   height="42.52"
   id="svg5390"
   version="1.1"
   inkscape:version="0.48.4 r9939"
   sodipodi:docname="twitter.svg"
   inkscape:export-filename="/home/joel/repos/innoventure/app/client/img/twitter.png"
   inkscape:export-xdpi="90"
   inkscape:export-ydpi="90">
  <defs
     id="defs5392" />
  <sodipodi:namedview
     id="base"
     pagecolor="#ffffff"
     bordercolor="#666666"
     borderopacity="1.0"
     inkscape:pageopacity="0.0"
     inkscape:pageshadow="2"
     inkscape:zoom="0.35"
     inkscape:cx="21.259995"
     inkscape:cy="21.259967"
     inkscape:document-units="px"
     inkscape:current-layer="layer1"
     showgrid="false"
     fit-margin-top="0"
     fit-margin-left="0"
     fit-margin-right="0"
     fit-margin-bottom="0"
     inkscape:window-width="1855"
     inkscape:window-height="1056"
     inkscape:window-x="65"
     inkscape:window-y="24"
     inkscape:window-maximized="1" />
  <metadata
     id="metadata5395">
    <rdf:RDF>
      <cc:Work
         rdf:about="">
        <dc:format>image/svg+xml</dc:format>
        <dc:type
           rdf:resource="http://purl.org/dc/dcmitype/StillImage" />
        <dc:title></dc:title>
      </cc:Work>
    </rdf:RDF>
  </metadata>
  <g
     inkscape:label="Layer 1"
     inkscape:groupmode="layer"
     id="layer1"
     transform="translate(-353.74,-511.10215)">
    <g
       transform="matrix(1.25,0,0,-1.25,203.05363,1106.0159)"
       id="g5180">
      <g
         transform="translate(137.5571,441.915)"
         id="g608">
        <path
           inkscape:connector-curvature="0"
           id="path610"
           style="fill:#7ccdf1;fill-opacity:1;fill-rule:nonzero;stroke:none"
           d="M 0,0 C 9.393,0 17.008,7.614 17.008,17.008 17.008,26.4 9.393,34.016 0,34.016 -9.394,34.016 -17.008,26.4 -17.008,17.008 -17.008,7.614 -9.394,0 0,0" />
      </g>
      <g
         transform="translate(146.0898,463.3784)"
         id="g612">
        <path
           inkscape:connector-curvature="0"
           id="path614"
           style="fill:#ffffff;fill-opacity:1;fill-rule:nonzero;stroke:none"
           d="m 0,0 c -0.626,-0.278 -1.301,-0.466 -2.007,-0.55 0.722,0.432 1.276,1.117 1.536,1.933 -0.675,-0.401 -1.423,-0.691 -2.22,-0.847 -0.636,0.679 -1.545,1.103 -2.551,1.103 -1.929,0 -3.494,-1.565 -3.494,-3.495 0,-0.274 0.029,-0.54 0.09,-0.796 -2.905,0.146 -5.48,1.536 -7.205,3.652 -0.301,-0.518 -0.473,-1.118 -0.473,-1.758 0,-1.212 0.617,-2.282 1.555,-2.909 -0.573,0.017 -1.112,0.176 -1.584,0.436 l 0,-0.043 c 0,-1.694 1.205,-3.107 2.805,-3.427 -0.294,-0.082 -0.602,-0.123 -0.922,-0.123 -0.225,0 -0.445,0.021 -0.657,0.062 0.444,-1.388 1.735,-2.4 3.265,-2.426 -1.197,-0.938 -2.704,-1.497 -4.341,-1.497 -0.282,0 -0.561,0.016 -0.834,0.048 1.547,-0.99 3.384,-1.57 5.358,-1.57 6.43,0 9.945,5.326 9.945,9.945 0,0.152 -0.003,0.304 -0.01,0.452 C -1.061,-1.316 -0.467,-0.701 0,0" />
      </g>
    </g>
  </g>
</svg>
